<svg width="164" height="616" viewBox="0 0 164 616" fill="none" xmlns="http://www.w3.org/2000/svg">
<mask id="mask0" mask-type="alpha" maskUnits="userSpaceOnUse" x="0" y="0" width="164" height="616">
<path d="M113.17 48.0444C109.406 48.0444 106.355 44.9715 106.355 41.1809C106.355 37.3903 109.406 34.3174 113.17 34.3174C116.934 34.3174 119.985 37.3903 119.985 41.1809C119.985 44.9715 116.934 48.0444 113.17 48.0444Z" fill="white"/>
<path d="M51.8308 48.0444C48.0667 48.0444 45.0153 44.9715 45.0153 41.1809C45.0153 37.3903 48.0667 34.3174 51.8308 34.3174C55.5949 34.3174 58.6462 37.3903 58.6462 41.1809C58.6462 44.9715 55.5949 48.0444 51.8308 48.0444Z" fill="white"/>
<path d="M55.2386 17.1587C51.4745 17.1587 48.4232 14.0858 48.4232 10.2952C48.4232 6.50465 51.4745 3.43176 55.2386 3.43176C59.0027 3.43176 62.0541 6.50465 62.0541 10.2952C62.0541 14.0858 59.0027 17.1587 55.2386 17.1587Z" fill="white"/>
<path d="M96.1313 168.155C92.3672 168.155 89.3159 165.082 89.3159 161.292C89.3159 157.501 92.3672 154.428 96.1313 154.428C99.8954 154.428 102.947 157.501 102.947 161.292C102.947 165.082 99.8954 168.155 96.1313 168.155Z" fill="white"/>
<path d="M89.3159 78.93C85.5518 78.93 82.5004 75.8571 82.5004 72.0665C82.5004 68.2759 85.5518 65.2031 89.3159 65.2031C93.08 65.2031 96.1313 68.2759 96.1313 72.0665C96.1313 75.8571 93.08 78.93 89.3159 78.93Z" fill="white"/>
<path d="M106.354 99.5205C102.59 99.5205 99.539 96.4476 99.539 92.657C99.539 88.8664 102.59 85.7935 106.354 85.7935C110.119 85.7935 113.17 88.8664 113.17 92.657C113.17 96.4476 110.119 99.5205 106.354 99.5205Z" fill="white"/>
<path d="M109.762 72.0666C105.998 72.0666 102.947 68.9937 102.947 65.2031C102.947 61.4125 105.998 58.3396 109.762 58.3396C113.526 58.3396 116.578 61.4125 116.578 65.2031C116.578 68.9937 113.526 72.0666 109.762 72.0666Z" fill="white"/>
<path d="M75.6849 82.3618C71.9208 82.3618 68.8694 79.2889 68.8694 75.4983C68.8694 71.7077 71.9208 68.6348 75.6849 68.6348C79.449 68.6348 82.5004 71.7077 82.5004 75.4983C82.5004 79.2889 79.449 82.3618 75.6849 82.3618Z" fill="white"/>
<path d="M113.17 199.041C109.406 199.041 106.355 195.968 106.355 192.178C106.355 188.387 109.406 185.314 113.17 185.314C116.934 185.314 119.985 188.387 119.985 192.178C119.985 195.968 116.934 199.041 113.17 199.041Z" fill="white"/>
<path d="M92.7236 202.473C88.9595 202.473 85.9081 199.4 85.9081 195.609C85.9081 191.819 88.9595 188.746 92.7236 188.746C96.4877 188.746 99.5391 191.819 99.5391 195.609C99.5391 199.4 96.4877 202.473 92.7236 202.473Z" fill="white"/>
<path d="M38.1999 205.905C34.4358 205.905 31.3845 202.832 31.3845 199.041C31.3845 195.25 34.4358 192.178 38.1999 192.178C41.964 192.178 45.0154 195.25 45.0154 199.041C45.0154 202.832 41.964 205.905 38.1999 205.905Z" fill="white"/>
<path d="M51.8309 147.565C44.3027 147.565 38.1999 141.419 38.1999 133.838C38.1999 126.257 44.3027 120.111 51.8309 120.111C59.359 120.111 65.4618 126.257 65.4618 133.838C65.4618 141.419 59.359 147.565 51.8309 147.565Z" fill="white"/>
<path d="M67.1656 123.543C64.3426 123.543 62.054 121.238 62.054 118.395C62.054 115.552 64.3426 113.247 67.1656 113.247C69.9887 113.247 72.2772 115.552 72.2772 118.395C72.2772 121.238 69.9887 123.543 67.1656 123.543Z" fill="white"/>
<path d="M111.466 85.7935C108.643 85.7935 106.355 83.4889 106.355 80.6459C106.355 77.803 108.643 75.4983 111.466 75.4983C114.289 75.4983 116.578 77.803 116.578 80.6459C116.578 83.4889 114.289 85.7935 111.466 85.7935Z" fill="white"/>
<path d="M53.5346 61.7714C50.7116 61.7714 48.423 59.4667 48.423 56.6237C48.423 53.7808 50.7116 51.4761 53.5346 51.4761C56.3577 51.4761 58.6462 53.7808 58.6462 56.6237C58.6462 59.4667 56.3577 61.7714 53.5346 61.7714Z" fill="white"/>
<path d="M70.5733 199.041C67.7503 199.041 65.4617 196.736 65.4617 193.893C65.4617 191.05 67.7503 188.746 70.5733 188.746C73.3964 188.746 75.6849 191.05 75.6849 193.893C75.6849 196.736 73.3964 199.041 70.5733 199.041Z" fill="white"/>
<path d="M101.243 188.746C98.4198 188.746 96.1313 186.441 96.1313 183.598C96.1313 180.755 98.4198 178.451 101.243 178.451C104.066 178.451 106.354 180.755 106.354 183.598C106.354 186.441 104.066 188.746 101.243 188.746Z" fill="white"/>
<path d="M114.874 109.816C112.051 109.816 109.762 107.511 109.762 104.668C109.762 101.825 112.051 99.5205 114.874 99.5205C117.697 99.5205 119.985 101.825 119.985 104.668C119.985 107.511 117.697 109.816 114.874 109.816Z" fill="white"/>
<path d="M128.505 171.587C125.682 171.587 123.393 169.282 123.393 166.439C123.393 163.597 125.682 161.292 128.505 161.292C131.328 161.292 133.616 163.597 133.616 166.439C133.616 169.282 131.328 171.587 128.505 171.587Z" fill="white"/>
<path d="M131.912 205.904C129.089 205.904 126.801 203.6 126.801 200.757C126.801 197.914 129.089 195.609 131.912 195.609C134.736 195.609 137.024 197.914 137.024 200.757C137.024 203.6 134.736 205.904 131.912 205.904Z" fill="white"/>
<path d="M91.0198 99.5205C88.1967 99.5205 85.9082 97.2158 85.9082 94.3729C85.9082 91.5299 88.1967 89.2253 91.0198 89.2253C93.8428 89.2253 96.1313 91.5299 96.1313 94.3729C96.1313 97.2158 93.8428 99.5205 91.0198 99.5205Z" fill="white"/>
<path d="M97.8352 51.4761C95.0121 51.4761 92.7236 49.1715 92.7236 46.3285C92.7236 43.4856 95.0121 41.1809 97.8352 41.1809C100.658 41.1809 102.947 43.4856 102.947 46.3285C102.947 49.1715 100.658 51.4761 97.8352 51.4761Z" fill="white"/>
<path d="M77.3888 130.406C74.5657 130.406 72.2772 128.102 72.2772 125.259C72.2772 122.416 74.5657 120.111 77.3888 120.111C80.2118 120.111 82.5004 122.416 82.5004 125.259C82.5004 128.102 80.2118 130.406 77.3888 130.406Z" fill="white"/>
<path d="M91.0198 24.0222C88.1967 24.0222 85.9082 21.7176 85.9082 18.8746C85.9082 16.0317 88.1967 13.727 91.0198 13.727C93.8428 13.727 96.1313 16.0317 96.1313 18.8746C96.1313 21.7176 93.8428 24.0222 91.0198 24.0222Z" fill="white"/>
<path d="M80.7965 116.679C77.9734 116.679 75.6849 114.375 75.6849 111.532C75.6849 108.689 77.9734 106.384 80.7965 106.384C83.6195 106.384 85.9081 108.689 85.9081 111.532C85.9081 114.375 83.6195 116.679 80.7965 116.679Z" fill="white"/>
<path d="M101.243 154.428C98.4198 154.428 96.1313 152.124 96.1313 149.281C96.1313 146.438 98.4198 144.133 101.243 144.133C104.066 144.133 106.354 146.438 106.354 149.281C106.354 152.124 104.066 154.428 101.243 154.428Z" fill="white"/>
<path d="M118.282 133.838C115.459 133.838 113.17 131.533 113.17 128.69C113.17 125.847 115.459 123.543 118.282 123.543C121.105 123.543 123.393 125.847 123.393 128.69C123.393 131.533 121.105 133.838 118.282 133.838Z" fill="white"/>
<path d="M91.0198 113.247C88.1967 113.247 85.9082 110.943 85.9082 108.1C85.9082 105.257 88.1967 102.952 91.0198 102.952C93.8428 102.952 96.1313 105.257 96.1313 108.1C96.1313 110.943 93.8428 113.247 91.0198 113.247Z" fill="white"/>
<path d="M101.243 109.816C98.4198 109.816 96.1313 107.511 96.1313 104.668C96.1313 101.825 98.4198 99.5205 101.243 99.5205C104.066 99.5205 106.354 101.825 106.354 104.668C106.354 107.511 104.066 109.816 101.243 109.816Z" fill="white"/>
<path d="M70.5733 30.8857C67.7503 30.8857 65.4617 28.581 65.4617 25.7381C65.4617 22.8951 67.7503 20.5905 70.5733 20.5905C73.3964 20.5905 75.6849 22.8951 75.6849 25.7381C75.6849 28.581 73.3964 30.8857 70.5733 30.8857Z" fill="white"/>
<path d="M63.7579 51.4761C60.9349 51.4761 58.6463 49.1715 58.6463 46.3285C58.6463 43.4856 60.9349 41.1809 63.7579 41.1809C66.581 41.1809 68.8695 43.4856 68.8695 46.3285C68.8695 49.1715 66.581 51.4761 63.7579 51.4761Z" fill="white"/>
<path d="M73.9811 168.155C71.158 168.155 68.8695 165.851 68.8695 163.008C68.8695 160.165 71.158 157.86 73.9811 157.86C76.8041 157.86 79.0927 160.165 79.0927 163.008C79.0927 165.851 76.8041 168.155 73.9811 168.155Z" fill="white"/>
<path d="M111.466 34.3174C108.643 34.3174 106.355 32.0128 106.355 29.1698C106.355 26.3269 108.643 24.0222 111.466 24.0222C114.289 24.0222 116.578 26.3269 116.578 29.1698C116.578 32.0128 114.289 34.3174 111.466 34.3174Z" fill="white"/>
<path d="M102.947 6.86348C101.065 6.86348 99.539 5.32704 99.539 3.43174C99.539 1.53644 101.065 0 102.947 0C104.829 0 106.354 1.53644 106.354 3.43174C106.354 5.32704 104.829 6.86348 102.947 6.86348Z" fill="white"/>
<path d="M126.801 195.609C124.919 195.609 123.393 194.073 123.393 192.178C123.393 190.282 124.919 188.746 126.801 188.746C128.683 188.746 130.209 190.282 130.209 192.178C130.209 194.073 128.683 195.609 126.801 195.609Z" fill="white"/>
<path d="M133.616 185.314C131.734 185.314 130.209 183.778 130.209 181.882C130.209 179.987 131.734 178.451 133.616 178.451C135.498 178.451 137.024 179.987 137.024 181.882C137.024 183.778 135.498 185.314 133.616 185.314Z" fill="white"/>
<path d="M140.432 192.178C138.55 192.178 137.024 190.641 137.024 188.746C137.024 186.85 138.55 185.314 140.432 185.314C142.314 185.314 143.84 186.85 143.84 188.746C143.84 190.641 142.314 192.178 140.432 192.178Z" fill="white"/>
<path d="M140.432 199.041C138.55 199.041 137.024 197.505 137.024 195.609C137.024 193.714 138.55 192.178 140.432 192.178C142.314 192.178 143.84 193.714 143.84 195.609C143.84 197.505 142.314 199.041 140.432 199.041Z" fill="white"/>
<path d="M123.393 188.746C121.511 188.746 119.985 187.209 119.985 185.314C119.985 183.419 121.511 181.882 123.393 181.882C125.275 181.882 126.801 183.419 126.801 185.314C126.801 187.209 125.275 188.746 123.393 188.746Z" fill="white"/>
<path d="M126.801 181.882C124.919 181.882 123.393 180.346 123.393 178.451C123.393 176.555 124.919 175.019 126.801 175.019C128.683 175.019 130.209 176.555 130.209 178.451C130.209 180.346 128.683 181.882 126.801 181.882Z" fill="white"/>
<path d="M137.024 175.019C135.142 175.019 133.616 173.482 133.616 171.587C133.616 169.692 135.142 168.155 137.024 168.155C138.906 168.155 140.432 169.692 140.432 171.587C140.432 173.482 138.906 175.019 137.024 175.019Z" fill="white"/>
<path d="M27.9767 195.609C26.0946 195.609 24.5689 194.073 24.5689 192.178C24.5689 190.282 26.0946 188.746 27.9767 188.746C29.8587 188.746 31.3844 190.282 31.3844 192.178C31.3844 194.073 29.8587 195.609 27.9767 195.609Z" fill="white"/>
<path d="M119.985 205.904C118.103 205.904 116.578 204.368 116.578 202.473C116.578 200.577 118.103 199.041 119.985 199.041C121.867 199.041 123.393 200.577 123.393 202.473C123.393 204.368 121.867 205.904 119.985 205.904Z" fill="white"/>
<path d="M102.947 205.904C101.065 205.904 99.539 204.368 99.539 202.473C99.539 200.577 101.065 199.041 102.947 199.041C104.829 199.041 106.354 200.577 106.354 202.473C106.354 204.368 104.829 205.904 102.947 205.904Z" fill="white"/>
<path d="M62.0541 205.904C60.172 205.904 58.6463 204.368 58.6463 202.473C58.6463 200.577 60.172 199.041 62.0541 199.041C63.9361 199.041 65.4618 200.577 65.4618 202.473C65.4618 204.368 63.9361 205.904 62.0541 205.904Z" fill="white"/>
<path d="M51.8308 202.473C49.9488 202.473 48.4231 200.936 48.4231 199.041C48.4231 197.146 49.9488 195.609 51.8308 195.609C53.7128 195.609 55.2385 197.146 55.2385 199.041C55.2385 200.936 53.7128 202.473 51.8308 202.473Z" fill="white"/>
<path d="M79.0926 202.473C77.2106 202.473 75.6849 200.936 75.6849 199.041C75.6849 197.146 77.2106 195.609 79.0926 195.609C80.9747 195.609 82.5004 197.146 82.5004 199.041C82.5004 200.936 80.9747 202.473 79.0926 202.473Z" fill="white"/>
<path d="M79.0926 140.701C77.2106 140.701 75.6849 139.165 75.6849 137.27C75.6849 135.374 77.2106 133.838 79.0926 133.838C80.9747 133.838 82.5004 135.374 82.5004 137.27C82.5004 139.165 80.9747 140.701 79.0926 140.701Z" fill="white"/>
<path d="M85.9082 150.997C84.0262 150.997 82.5005 149.46 82.5005 147.565C82.5005 145.67 84.0262 144.133 85.9082 144.133C87.7902 144.133 89.3159 145.67 89.3159 147.565C89.3159 149.46 87.7902 150.997 85.9082 150.997Z" fill="white"/>
<path d="M106.354 144.133C104.472 144.133 102.947 142.597 102.947 140.701C102.947 138.806 104.472 137.27 106.354 137.27C108.237 137.27 109.762 138.806 109.762 140.701C109.762 142.597 108.237 144.133 106.354 144.133Z" fill="white"/>
<path d="M85.9082 123.543C84.0262 123.543 82.5005 122.006 82.5005 120.111C82.5005 118.216 84.0262 116.679 85.9082 116.679C87.7902 116.679 89.3159 118.216 89.3159 120.111C89.3159 122.006 87.7902 123.543 85.9082 123.543Z" fill="white"/>
<path d="M96.1313 120.111C94.2493 120.111 92.7236 118.575 92.7236 116.679C92.7236 114.784 94.2493 113.247 96.1313 113.247C98.0134 113.247 99.5391 114.784 99.5391 116.679C99.5391 118.575 98.0134 120.111 96.1313 120.111Z" fill="white"/>
<path d="M45.0154 120.111C43.1333 120.111 41.6076 118.575 41.6076 116.679C41.6076 114.784 43.1333 113.247 45.0154 113.247C46.8974 113.247 48.4231 114.784 48.4231 116.679C48.4231 118.575 46.8974 120.111 45.0154 120.111Z" fill="white"/>
<path d="M106.354 116.679C104.472 116.679 102.947 115.143 102.947 113.247C102.947 111.352 104.472 109.816 106.354 109.816C108.237 109.816 109.762 111.352 109.762 113.247C109.762 115.143 108.237 116.679 106.354 116.679Z" fill="white"/>
<path d="M102.947 126.974C101.065 126.974 99.539 125.438 99.539 123.543C99.539 121.647 101.065 120.111 102.947 120.111C104.829 120.111 106.354 121.647 106.354 123.543C106.354 125.438 104.829 126.974 102.947 126.974Z" fill="white"/>
<path d="M116.578 120.111C114.696 120.111 113.17 118.575 113.17 116.679C113.17 114.784 114.696 113.247 116.578 113.247C118.46 113.247 119.985 114.784 119.985 116.679C119.985 118.575 118.46 120.111 116.578 120.111Z" fill="white"/>
<path d="M109.762 123.543C107.88 123.543 106.354 122.006 106.354 120.111C106.354 118.216 107.88 116.679 109.762 116.679C111.644 116.679 113.17 118.216 113.17 120.111C113.17 122.006 111.644 123.543 109.762 123.543Z" fill="white"/>
<path d="M106.354 133.838C104.472 133.838 102.947 132.301 102.947 130.406C102.947 128.511 104.472 126.974 106.354 126.974C108.237 126.974 109.762 128.511 109.762 130.406C109.762 132.301 108.237 133.838 106.354 133.838Z" fill="white"/>
<path d="M96.1313 61.7713C94.2493 61.7713 92.7236 60.2349 92.7236 58.3396C92.7236 56.4443 94.2493 54.9078 96.1313 54.9078C98.0134 54.9078 99.5391 56.4443 99.5391 58.3396C99.5391 60.2349 98.0134 61.7713 96.1313 61.7713Z" fill="white"/>
<path d="M62.0541 65.2031C60.172 65.2031 58.6463 63.6666 58.6463 61.7713C58.6463 59.876 60.172 58.3396 62.0541 58.3396C63.9361 58.3396 65.4618 59.876 65.4618 61.7713C65.4618 63.6666 63.9361 65.2031 62.0541 65.2031Z" fill="white"/>
<path d="M38.1999 150.997C36.3179 150.997 34.7922 149.46 34.7922 147.565C34.7922 145.67 36.3179 144.133 38.1999 144.133C40.082 144.133 41.6077 145.67 41.6077 147.565C41.6077 149.46 40.082 150.997 38.1999 150.997Z" fill="white"/>
<path d="M24.569 205.904C22.6869 205.904 21.1612 204.368 21.1612 202.473C21.1612 200.577 22.6869 199.041 24.569 199.041C26.451 199.041 27.9767 200.577 27.9767 202.473C27.9767 204.368 26.451 205.904 24.569 205.904Z" fill="white"/>
<path d="M143.84 205.904C141.958 205.904 140.432 204.368 140.432 202.473C140.432 200.577 141.958 199.041 143.84 199.041C145.722 199.041 147.247 200.577 147.247 202.473C147.247 204.368 145.722 205.904 143.84 205.904Z" fill="white"/>
<path d="M82.5004 161.292C80.6183 161.292 79.0926 159.755 79.0926 157.86C79.0926 155.965 80.6183 154.428 82.5004 154.428C84.3824 154.428 85.9081 155.965 85.9081 157.86C85.9081 159.755 84.3824 161.292 82.5004 161.292Z" fill="white"/>
<path d="M113.17 54.9079C111.288 54.9079 109.762 53.3714 109.762 51.4761C109.762 49.5808 111.288 48.0444 113.17 48.0444C115.052 48.0444 116.578 49.5808 116.578 51.4761C116.578 53.3714 115.052 54.9079 113.17 54.9079Z" fill="white"/>
<path d="M89.3159 6.86348C87.4339 6.86348 85.9082 5.32704 85.9082 3.43174C85.9082 1.53644 87.4339 0 89.3159 0C91.1979 0 92.7236 1.53644 92.7236 3.43174C92.7236 5.32704 91.1979 6.86348 89.3159 6.86348Z" fill="white"/>
<path d="M113.17 13.7269C111.288 13.7269 109.762 12.1905 109.762 10.2952C109.762 8.39991 111.288 6.86346 113.17 6.86346C115.052 6.86346 116.578 8.39991 116.578 10.2952C116.578 12.1905 115.052 13.7269 113.17 13.7269Z" fill="white"/>
<path d="M102.947 24.0222C101.065 24.0222 99.539 22.4857 99.539 20.5904C99.539 18.6951 101.065 17.1587 102.947 17.1587C104.829 17.1587 106.354 18.6951 106.354 20.5904C106.354 22.4857 104.829 24.0222 102.947 24.0222Z" fill="white"/>
<path d="M99.539 30.8857C97.657 30.8857 96.1313 29.3493 96.1313 27.454C96.1313 25.5587 97.657 24.0222 99.539 24.0222C101.421 24.0222 102.947 25.5587 102.947 27.454C102.947 29.3493 101.421 30.8857 99.539 30.8857Z" fill="white"/>
<path d="M96.1313 13.7269C94.2493 13.7269 92.7236 12.1905 92.7236 10.2952C92.7236 8.39991 94.2493 6.86346 96.1313 6.86346C98.0134 6.86346 99.5391 8.39991 99.5391 10.2952C99.5391 12.1905 98.0134 13.7269 96.1313 13.7269Z" fill="white"/>
<path d="M72.2772 137.27C70.3952 137.27 68.8695 135.733 68.8695 133.838C68.8695 131.943 70.3952 130.406 72.2772 130.406C74.1592 130.406 75.6849 131.943 75.6849 133.838C75.6849 135.733 74.1592 137.27 72.2772 137.27Z" fill="white"/>
<path d="M106.354 17.1587C104.472 17.1587 102.947 15.6223 102.947 13.727C102.947 11.8317 104.472 10.2952 106.354 10.2952C108.237 10.2952 109.762 11.8317 109.762 13.727C109.762 15.6223 108.237 17.1587 106.354 17.1587Z" fill="white"/>
<path d="M72.2772 109.816C70.3952 109.816 68.8695 108.279 68.8695 106.384C68.8695 104.489 70.3952 102.952 72.2772 102.952C74.1592 102.952 75.6849 104.489 75.6849 106.384C75.6849 108.279 74.1592 109.816 72.2772 109.816Z" fill="white"/>
<path d="M82.5004 102.952C80.6183 102.952 79.0926 101.416 79.0926 99.5205C79.0926 97.6252 80.6183 96.0887 82.5004 96.0887C84.3824 96.0887 85.9081 97.6252 85.9081 99.5205C85.9081 101.416 84.3824 102.952 82.5004 102.952Z" fill="white"/>
<path d="M102.947 78.9301C101.065 78.9301 99.539 77.3936 99.539 75.4983C99.539 73.603 101.065 72.0666 102.947 72.0666C104.829 72.0666 106.354 73.603 106.354 75.4983C106.354 77.3936 104.829 78.9301 102.947 78.9301Z" fill="white"/>
<path d="M96.1313 85.7935C94.2493 85.7935 92.7236 84.2571 92.7236 82.3618C92.7236 80.4665 94.2493 78.9301 96.1313 78.9301C98.0134 78.9301 99.5391 80.4665 99.5391 82.3618C99.5391 84.2571 98.0134 85.7935 96.1313 85.7935Z" fill="white"/>
<path d="M85.9082 89.2253C84.0262 89.2253 82.5005 87.6889 82.5005 85.7936C82.5005 83.8983 84.0262 82.3618 85.9082 82.3618C87.7902 82.3618 89.3159 83.8983 89.3159 85.7936C89.3159 87.6889 87.7902 89.2253 85.9082 89.2253Z" fill="white"/>
<path d="M68.8695 41.1809C66.9875 41.1809 65.4618 39.6445 65.4618 37.7492C65.4618 35.8539 66.9875 34.3174 68.8695 34.3174C70.7515 34.3174 72.2772 35.8539 72.2772 37.7492C72.2772 39.6445 70.7515 41.1809 68.8695 41.1809Z" fill="white"/>
<path d="M113.17 24.0222C111.288 24.0222 109.762 22.4857 109.762 20.5904C109.762 18.6951 111.288 17.1587 113.17 17.1587C115.052 17.1587 116.578 18.6951 116.578 20.5904C116.578 22.4857 115.052 24.0222 113.17 24.0222Z" fill="white"/>
<path d="M92.7236 144.133C87.0775 144.133 82.5004 139.524 82.5004 133.838C82.5004 128.152 87.0775 123.543 92.7236 123.543C98.3697 123.543 102.947 128.152 102.947 133.838C102.947 139.524 98.3697 144.133 92.7236 144.133Z" fill="white"/>
<path d="M55.2386 113.247C49.5925 113.247 45.0154 108.638 45.0154 102.952C45.0154 97.2664 49.5925 92.657 55.2386 92.657C60.8847 92.657 65.4618 97.2664 65.4618 102.952C65.4618 108.638 60.8847 113.247 55.2386 113.247Z" fill="white"/>
<path d="M58.6463 89.2253C53.0002 89.2253 48.4231 84.6159 48.4231 78.9301C48.4231 73.2442 53.0002 68.6348 58.6463 68.6348C64.2924 68.6348 68.8695 73.2442 68.8695 78.9301C68.8695 84.6159 64.2924 89.2253 58.6463 89.2253Z" fill="white"/>
<path d="M113.17 181.882C107.524 181.882 102.947 177.273 102.947 171.587C102.947 165.901 107.524 161.292 113.17 161.292C118.816 161.292 123.393 165.901 123.393 171.587C123.393 177.273 118.816 181.882 113.17 181.882Z" fill="white"/>
<path d="M82.5004 188.746C76.8543 188.746 72.2773 184.136 72.2773 178.451C72.2773 172.765 76.8543 168.155 82.5004 168.155C88.1466 168.155 92.7236 172.765 92.7236 178.451C92.7236 184.136 88.1466 188.746 82.5004 188.746Z" fill="white"/>
<path d="M119.985 161.292C114.339 161.292 109.762 156.683 109.762 150.997C109.762 145.311 114.339 140.701 119.985 140.701C125.632 140.701 130.209 145.311 130.209 150.997C130.209 156.683 125.632 161.292 119.985 161.292Z" fill="white"/>
<path d="M79.0927 65.2031C73.4466 65.2031 68.8695 60.5938 68.8695 54.9079C68.8695 49.222 73.4466 44.6127 79.0927 44.6127C84.7388 44.6127 89.3159 49.222 89.3159 54.9079C89.3159 60.5938 84.7388 65.2031 79.0927 65.2031Z" fill="white"/>
<path d="M85.9082 44.6127C80.262 44.6127 75.685 40.0033 75.685 34.3174C75.685 28.6315 80.262 24.0222 85.9082 24.0222C91.5543 24.0222 96.1313 28.6315 96.1313 34.3174C96.1313 40.0033 91.5543 44.6127 85.9082 44.6127Z" fill="white"/>
<path d="M75.6849 20.5905C70.0388 20.5905 65.4617 15.9811 65.4617 10.2952C65.4617 4.60933 70.0388 0 75.6849 0C81.331 0 85.9081 4.60933 85.9081 10.2952C85.9081 15.9811 81.331 20.5905 75.6849 20.5905Z" fill="white"/>
<path d="M48.4231 192.178C37.1309 192.178 27.9767 182.959 27.9767 171.587C27.9767 160.215 37.1309 150.997 48.4231 150.997C59.7153 150.997 68.8695 160.215 68.8695 171.587C68.8695 182.959 59.7153 192.178 48.4231 192.178Z" fill="white"/>
<path d="M58.6463 34.3174C54.8823 34.3174 51.8309 31.2445 51.8309 27.4539C51.8309 23.6633 54.8823 20.5905 58.6463 20.5905C62.4104 20.5905 65.4618 23.6633 65.4618 27.4539C65.4618 31.2445 62.4104 34.3174 58.6463 34.3174Z" fill="white"/>
<path d="M72.2772 99.5205C68.5131 99.5205 65.4617 96.4476 65.4617 92.657C65.4617 88.8664 68.5131 85.7935 72.2772 85.7935C76.0413 85.7935 79.0927 88.8664 79.0927 92.657C79.0927 96.4476 76.0413 99.5205 72.2772 99.5205Z" fill="white"/>
<path d="M72.2772 154.428C68.5131 154.428 65.4617 151.355 65.4617 147.565C65.4617 143.774 68.5131 140.701 72.2772 140.701C76.0413 140.701 79.0927 143.774 79.0927 147.565C79.0927 151.355 76.0413 154.428 72.2772 154.428Z" fill="white"/>
<path d="M75.1667 339.742C71.3927 339.742 68.3333 336.67 68.3333 332.879C68.3333 329.088 71.3927 326.015 75.1667 326.015C78.9406 326.015 82 329.088 82 332.879C82 336.67 78.9406 339.742 75.1667 339.742Z" fill="white"/>
<path d="M58.0833 380.923C54.3093 380.923 51.25 377.85 51.25 374.06C51.25 370.269 54.3093 367.196 58.0833 367.196C61.8572 367.196 64.9166 370.269 64.9166 374.06C64.9166 377.85 61.8572 380.923 58.0833 380.923Z" fill="white"/>
<path d="M157.167 346.606C153.393 346.606 150.333 343.533 150.333 339.742C150.333 335.952 153.393 332.879 157.167 332.879C160.941 332.879 164 335.952 164 339.742C164 343.533 160.941 346.606 157.167 346.606Z" fill="white"/>
<path d="M41 404.945C37.2261 404.945 34.1667 401.873 34.1667 398.082C34.1667 394.291 37.2261 391.219 41 391.219C44.774 391.219 47.8334 394.291 47.8334 398.082C47.8334 401.873 44.774 404.945 41 404.945Z" fill="white"/>
<path d="M13.6667 404.945C9.89272 404.945 6.83333 401.873 6.83333 398.082C6.83333 394.291 9.89272 391.219 13.6667 391.219C17.4406 391.219 20.5 394.291 20.5 398.082C20.5 401.873 17.4406 404.945 13.6667 404.945Z" fill="white"/>
<path d="M64.9167 367.196C57.3688 367.196 51.25 361.051 51.25 353.469C51.25 345.888 57.3688 339.742 64.9167 339.742C72.4646 339.742 78.5834 345.888 78.5834 353.469C78.5834 361.051 72.4646 367.196 64.9167 367.196Z" fill="white"/>
<path d="M129.833 243.654C122.285 243.654 116.167 237.508 116.167 229.927C116.167 222.345 122.285 216.2 129.833 216.2C137.381 216.2 143.5 222.345 143.5 229.927C143.5 237.508 137.381 243.654 129.833 243.654Z" fill="white"/>
<path d="M99.0834 360.333C93.4225 360.333 88.8334 355.724 88.8334 350.038C88.8334 344.352 93.4225 339.742 99.0834 339.742C104.744 339.742 109.333 344.352 109.333 350.038C109.333 355.724 104.744 360.333 99.0834 360.333Z" fill="white"/>
<path d="M148.625 223.063C145.795 223.063 143.5 220.759 143.5 217.916C143.5 215.073 145.795 212.768 148.625 212.768C151.455 212.768 153.75 215.073 153.75 217.916C153.75 220.759 151.455 223.063 148.625 223.063Z" fill="white"/>
<path d="M49.5416 391.219C46.7112 391.219 44.4166 388.914 44.4166 386.071C44.4166 383.228 46.7112 380.923 49.5416 380.923C52.3721 380.923 54.6666 383.228 54.6666 386.071C54.6666 388.914 52.3721 391.219 49.5416 391.219Z" fill="white"/>
<path d="M104.208 336.311C101.378 336.311 99.0834 334.006 99.0834 331.163C99.0834 328.32 101.378 326.015 104.208 326.015C107.039 326.015 109.333 328.32 109.333 331.163C109.333 334.006 107.039 336.311 104.208 336.311Z" fill="white"/>
<path d="M134.958 329.447C132.128 329.447 129.833 327.143 129.833 324.3C129.833 321.457 132.128 319.152 134.958 319.152C137.789 319.152 140.083 321.457 140.083 324.3C140.083 327.143 137.789 329.447 134.958 329.447Z" fill="white"/>
<path d="M70.0416 391.219C67.2112 391.219 64.9166 388.914 64.9166 386.071C64.9166 383.228 67.2112 380.923 70.0416 380.923C72.8721 380.923 75.1666 383.228 75.1666 386.071C75.1666 388.914 72.8721 391.219 70.0416 391.219Z" fill="white"/>
<path d="M70.0416 377.492C67.2112 377.492 64.9166 375.187 64.9166 372.344C64.9166 369.501 67.2112 367.196 70.0416 367.196C72.8721 367.196 75.1666 369.501 75.1666 372.344C75.1666 375.187 72.8721 377.492 70.0416 377.492Z" fill="white"/>
<path d="M52.9584 411.809C50.1279 411.809 47.8334 409.504 47.8334 406.661C47.8334 403.818 50.1279 401.514 52.9584 401.514C55.7888 401.514 58.0834 403.818 58.0834 406.661C58.0834 409.504 55.7888 411.809 52.9584 411.809Z" fill="white"/>
<path d="M29.0416 411.809C26.2112 411.809 23.9166 409.504 23.9166 406.661C23.9166 403.818 26.2112 401.514 29.0416 401.514C31.8721 401.514 34.1666 403.818 34.1666 406.661C34.1666 409.504 31.8721 411.809 29.0416 411.809Z" fill="white"/>
<path d="M83.7084 363.765C80.8779 363.765 78.5834 361.46 78.5834 358.617C78.5834 355.774 80.8779 353.469 83.7084 353.469C86.5388 353.469 88.8334 355.774 88.8334 358.617C88.8334 361.46 86.5388 363.765 83.7084 363.765Z" fill="white"/>
<path d="M114.458 223.063C111.628 223.063 109.333 220.759 109.333 217.916C109.333 215.073 111.628 212.768 114.458 212.768C117.289 212.768 119.583 215.073 119.583 217.916C119.583 220.759 117.289 223.063 114.458 223.063Z" fill="white"/>
<path d="M100.792 216.2C97.9612 216.2 95.6666 213.895 95.6666 211.052C95.6666 208.209 97.9612 205.904 100.792 205.904C103.622 205.904 105.917 208.209 105.917 211.052C105.917 213.895 103.622 216.2 100.792 216.2Z" fill="white"/>
<path d="M59.7916 216.2C56.9612 216.2 54.6666 213.895 54.6666 211.052C54.6666 208.209 56.9612 205.904 59.7916 205.904C62.6221 205.904 64.9166 208.209 64.9166 211.052C64.9166 213.895 62.6221 216.2 59.7916 216.2Z" fill="white"/>
<path d="M124.708 216.2C121.878 216.2 119.583 213.895 119.583 211.052C119.583 208.209 121.878 205.904 124.708 205.904C127.539 205.904 129.833 208.209 129.833 211.052C129.833 213.895 127.539 216.2 124.708 216.2Z" fill="white"/>
<path d="M117.875 277.971C115.045 277.971 112.75 275.666 112.75 272.823C112.75 269.981 115.045 267.676 117.875 267.676C120.705 267.676 123 269.981 123 272.823C123 275.666 120.705 277.971 117.875 277.971Z" fill="white"/>
<path d="M138.375 281.403C135.545 281.403 133.25 279.098 133.25 276.255C133.25 273.412 135.545 271.108 138.375 271.108C141.205 271.108 143.5 273.412 143.5 276.255C143.5 279.098 141.205 281.403 138.375 281.403Z" fill="white"/>
<path d="M87.125 322.584C84.2945 322.584 82 320.279 82 317.436C82 314.593 84.2945 312.288 87.125 312.288C89.9555 312.288 92.25 314.593 92.25 317.436C92.25 320.279 89.9555 322.584 87.125 322.584Z" fill="white"/>
<path d="M90.5416 336.311C87.7112 336.311 85.4166 334.006 85.4166 331.163C85.4166 328.32 87.7112 326.015 90.5416 326.015C93.3721 326.015 95.6666 328.32 95.6666 331.163C95.6666 334.006 93.3721 336.311 90.5416 336.311Z" fill="white"/>
<path d="M152.042 380.923C149.211 380.923 146.917 378.619 146.917 375.776C146.917 372.933 149.211 370.628 152.042 370.628C154.872 370.628 157.167 372.933 157.167 375.776C157.167 378.619 154.872 380.923 152.042 380.923Z" fill="white"/>
<path d="M148.625 398.082C145.795 398.082 143.5 395.777 143.5 392.934C143.5 390.091 145.795 387.787 148.625 387.787C151.455 387.787 153.75 390.091 153.75 392.934C153.75 395.777 151.455 398.082 148.625 398.082Z" fill="white"/>
<path d="M131.542 315.72C128.711 315.72 126.417 313.416 126.417 310.573C126.417 307.73 128.711 305.425 131.542 305.425C134.372 305.425 136.667 307.73 136.667 310.573C136.667 313.416 134.372 315.72 131.542 315.72Z" fill="white"/>
<path d="M138.375 305.425C135.545 305.425 133.25 303.12 133.25 300.277C133.25 297.434 135.545 295.13 138.375 295.13C141.205 295.13 143.5 297.434 143.5 300.277C143.5 303.12 141.205 305.425 138.375 305.425Z" fill="white"/>
<path d="M145.208 295.13C142.378 295.13 140.083 292.825 140.083 289.982C140.083 287.139 142.378 284.835 145.208 284.835C148.039 284.835 150.333 287.139 150.333 289.982C150.333 292.825 148.039 295.13 145.208 295.13Z" fill="white"/>
<path d="M155.458 288.266C152.628 288.266 150.333 285.962 150.333 283.119C150.333 280.276 152.628 277.971 155.458 277.971C158.289 277.971 160.583 280.276 160.583 283.119C160.583 285.962 158.289 288.266 155.458 288.266Z" fill="white"/>
<path d="M152.042 267.676C149.211 267.676 146.917 265.371 146.917 262.528C146.917 259.685 149.211 257.381 152.042 257.381C154.872 257.381 157.167 259.685 157.167 262.528C157.167 265.371 154.872 267.676 152.042 267.676Z" fill="white"/>
<path d="M128.125 267.676C125.295 267.676 123 265.371 123 262.528C123 259.685 125.295 257.381 128.125 257.381C130.955 257.381 133.25 259.685 133.25 262.528C133.25 265.371 130.955 267.676 128.125 267.676Z" fill="white"/>
<path d="M124.708 253.949C121.878 253.949 119.583 251.644 119.583 248.801C119.583 245.958 121.878 243.654 124.708 243.654C127.539 243.654 129.833 245.958 129.833 248.801C129.833 251.644 127.539 253.949 124.708 253.949Z" fill="white"/>
<path d="M138.375 253.949C135.545 253.949 133.25 251.644 133.25 248.801C133.25 245.958 135.545 243.654 138.375 243.654C141.205 243.654 143.5 245.958 143.5 248.801C143.5 251.644 141.205 253.949 138.375 253.949Z" fill="white"/>
<path d="M128.125 367.196C125.295 367.196 123 364.892 123 362.049C123 359.206 125.295 356.901 128.125 356.901C130.955 356.901 133.25 359.206 133.25 362.049C133.25 364.892 130.955 367.196 128.125 367.196Z" fill="white"/>
<path d="M141.792 343.174C138.961 343.174 136.667 340.869 136.667 338.027C136.667 335.184 138.961 332.879 141.792 332.879C144.622 332.879 146.917 335.184 146.917 338.027C146.917 340.869 144.622 343.174 141.792 343.174Z" fill="white"/>
<path d="M114.458 367.196C111.628 367.196 109.333 364.892 109.333 362.049C109.333 359.206 111.628 356.901 114.458 356.901C117.289 356.901 119.583 359.206 119.583 362.049C119.583 364.892 117.289 367.196 114.458 367.196Z" fill="white"/>
<path d="M97.375 374.06C94.5445 374.06 92.25 371.755 92.25 368.912C92.25 366.069 94.5445 363.765 97.375 363.765C100.205 363.765 102.5 366.069 102.5 368.912C102.5 371.755 100.205 374.06 97.375 374.06Z" fill="white"/>
<path d="M148.625 411.809C145.795 411.809 143.5 409.504 143.5 406.661C143.5 403.818 145.795 401.514 148.625 401.514C151.455 401.514 153.75 403.818 153.75 406.661C153.75 409.504 151.455 411.809 148.625 411.809Z" fill="white"/>
<path d="M83.7084 350.038C80.8779 350.038 78.5834 347.733 78.5834 344.89C78.5834 342.047 80.8779 339.742 83.7084 339.742C86.5388 339.742 88.8334 342.047 88.8334 344.89C88.8334 347.733 86.5388 350.038 83.7084 350.038Z" fill="white"/>
<path d="M155.458 301.993C152.628 301.993 150.333 299.689 150.333 296.846C150.333 294.003 152.628 291.698 155.458 291.698C158.289 291.698 160.583 294.003 160.583 296.846C160.583 299.689 158.289 301.993 155.458 301.993Z" fill="white"/>
<path d="M114.458 264.244C111.628 264.244 109.333 261.939 109.333 259.096C109.333 256.254 111.628 253.949 114.458 253.949C117.289 253.949 119.583 256.254 119.583 259.096C119.583 261.939 117.289 264.244 114.458 264.244Z" fill="white"/>
<path d="M11.9584 346.606C9.12791 346.606 6.83337 344.301 6.83337 341.458C6.83337 338.615 9.12791 336.311 11.9584 336.311C14.7888 336.311 17.0834 338.615 17.0834 341.458C17.0834 344.301 14.7888 346.606 11.9584 346.606Z" fill="white"/>
<path d="M22.2083 240.222C17.4909 240.222 13.6667 236.381 13.6667 231.643C13.6667 226.904 17.4909 223.063 22.2083 223.063C26.9258 223.063 30.75 226.904 30.75 231.643C30.75 236.381 26.9258 240.222 22.2083 240.222Z" fill="white"/>
<path d="M107.625 308.857C102.908 308.857 99.0833 305.016 99.0833 300.277C99.0833 295.539 102.908 291.698 107.625 291.698C112.342 291.698 116.167 295.539 116.167 300.277C116.167 305.016 112.342 308.857 107.625 308.857Z" fill="white"/>
<path d="M87.125 312.288C82.4075 312.288 78.5833 308.447 78.5833 303.709C78.5833 298.971 82.4075 295.13 87.125 295.13C91.8424 295.13 95.6666 298.971 95.6666 303.709C95.6666 308.447 91.8424 312.288 87.125 312.288Z" fill="white"/>
<path d="M83.7083 247.085C78.9909 247.085 75.1667 243.244 75.1667 238.506C75.1667 233.768 78.9909 229.927 83.7083 229.927C88.4258 229.927 92.25 233.768 92.25 238.506C92.25 243.244 88.4258 247.085 83.7083 247.085Z" fill="white"/>
<path d="M29.0417 223.063C24.3243 223.063 20.5 219.222 20.5 214.484C20.5 209.746 24.3243 205.904 29.0417 205.904C33.7591 205.904 37.5834 209.746 37.5834 214.484C37.5834 219.222 33.7591 223.063 29.0417 223.063Z" fill="white"/>
<path d="M44.4167 216.2C42.5297 216.2 41 214.663 41 212.768C41 210.873 42.5297 209.336 44.4167 209.336C46.3037 209.336 47.8334 210.873 47.8334 212.768C47.8334 214.663 46.3037 216.2 44.4167 216.2Z" fill="white"/>
<path d="M88.8333 219.631C86.9464 219.631 85.4167 218.095 85.4167 216.2C85.4167 214.304 86.9464 212.768 88.8333 212.768C90.7203 212.768 92.25 214.304 92.25 216.2C92.25 218.095 90.7203 219.631 88.8333 219.631Z" fill="white"/>
<path d="M71.75 212.768C69.863 212.768 68.3333 211.232 68.3333 209.336C68.3333 207.441 69.863 205.904 71.75 205.904C73.6369 205.904 75.1666 207.441 75.1666 209.336C75.1666 211.232 73.6369 212.768 71.75 212.768Z" fill="white"/>
<path d="M140.083 267.676C138.196 267.676 136.667 266.139 136.667 264.244C136.667 262.349 138.196 260.812 140.083 260.812C141.97 260.812 143.5 262.349 143.5 264.244C143.5 266.139 141.97 267.676 140.083 267.676Z" fill="white"/>
<path d="M99.0833 326.015C97.1964 326.015 95.6667 324.479 95.6667 322.584C95.6667 320.688 97.1964 319.152 99.0833 319.152C100.97 319.152 102.5 320.688 102.5 322.584C102.5 324.479 100.97 326.015 99.0833 326.015Z" fill="white"/>
<path d="M112.75 350.038C110.863 350.038 109.333 348.501 109.333 346.606C109.333 344.711 110.863 343.174 112.75 343.174C114.637 343.174 116.167 344.711 116.167 346.606C116.167 348.501 114.637 350.038 112.75 350.038Z" fill="white"/>
<path d="M160.583 353.469C158.696 353.469 157.167 351.933 157.167 350.038C157.167 348.142 158.696 346.606 160.583 346.606C162.47 346.606 164 348.142 164 350.038C164 351.933 162.47 353.469 160.583 353.469Z" fill="white"/>
<path d="M146.917 329.447C145.03 329.447 143.5 327.911 143.5 326.015C143.5 324.12 145.03 322.584 146.917 322.584C148.804 322.584 150.333 324.12 150.333 326.015C150.333 327.911 148.804 329.447 146.917 329.447Z" fill="white"/>
<path d="M157.167 329.447C155.28 329.447 153.75 327.911 153.75 326.015C153.75 324.12 155.28 322.584 157.167 322.584C159.054 322.584 160.583 324.12 160.583 326.015C160.583 327.911 159.054 329.447 157.167 329.447Z" fill="white"/>
<path d="M95.6667 411.809C93.7797 411.809 92.25 410.273 92.25 408.377C92.25 406.482 93.7797 404.945 95.6667 404.945C97.5537 404.945 99.0834 406.482 99.0834 408.377C99.0834 410.273 97.5537 411.809 95.6667 411.809Z" fill="white"/>
<path d="M75.1667 408.377C73.2797 408.377 71.75 406.841 71.75 404.945C71.75 403.05 73.2797 401.514 75.1667 401.514C77.0537 401.514 78.5834 403.05 78.5834 404.945C78.5834 406.841 77.0537 408.377 75.1667 408.377Z" fill="white"/>
<path d="M88.8333 384.355C86.9464 384.355 85.4167 382.819 85.4167 380.923C85.4167 379.028 86.9464 377.492 88.8333 377.492C90.7203 377.492 92.25 379.028 92.25 380.923C92.25 382.819 90.7203 384.355 88.8333 384.355Z" fill="white"/>
<path d="M78.5833 380.923C76.6964 380.923 75.1667 379.387 75.1667 377.492C75.1667 375.596 76.6964 374.06 78.5833 374.06C80.4703 374.06 82 375.596 82 377.492C82 379.387 80.4703 380.923 78.5833 380.923Z" fill="white"/>
<path d="M99.0833 223.063C97.1964 223.063 95.6667 221.527 95.6667 219.631C95.6667 217.736 97.1964 216.2 99.0833 216.2C100.97 216.2 102.5 217.736 102.5 219.631C102.5 221.527 100.97 223.063 99.0833 223.063Z" fill="white"/>
<path d="M105.917 226.495C104.03 226.495 102.5 224.958 102.5 223.063C102.5 221.168 104.03 219.631 105.917 219.631C107.804 219.631 109.333 221.168 109.333 223.063C109.333 224.958 107.804 226.495 105.917 226.495Z" fill="white"/>
<path d="M92.25 229.927C90.363 229.927 88.8333 228.39 88.8333 226.495C88.8333 224.6 90.363 223.063 92.25 223.063C94.1369 223.063 95.6666 224.6 95.6666 226.495C95.6666 228.39 94.1369 229.927 92.25 229.927Z" fill="white"/>
<path d="M82 212.768C80.113 212.768 78.5833 211.232 78.5833 209.336C78.5833 207.441 80.113 205.904 82 205.904C83.8869 205.904 85.4166 207.441 85.4166 209.336C85.4166 211.232 83.8869 212.768 82 212.768Z" fill="white"/>
<path d="M150.333 277.971C148.446 277.971 146.917 276.435 146.917 274.539C146.917 272.644 148.446 271.108 150.333 271.108C152.22 271.108 153.75 272.644 153.75 274.539C153.75 276.435 152.22 277.971 150.333 277.971Z" fill="white"/>
<path d="M99.0833 315.72C97.1964 315.72 95.6667 314.184 95.6667 312.288C95.6667 310.393 97.1964 308.857 99.0833 308.857C100.97 308.857 102.5 310.393 102.5 312.288C102.5 314.184 100.97 315.72 99.0833 315.72Z" fill="white"/>
<path d="M75.1667 298.562C73.2797 298.562 71.75 297.025 71.75 295.13C71.75 293.234 73.2797 291.698 75.1667 291.698C77.0537 291.698 78.5834 293.234 78.5834 295.13C78.5834 297.025 77.0537 298.562 75.1667 298.562Z" fill="white"/>
<path d="M116.167 339.742C114.28 339.742 112.75 338.206 112.75 336.311C112.75 334.415 114.28 332.879 116.167 332.879C118.054 332.879 119.583 334.415 119.583 336.311C119.583 338.206 118.054 339.742 116.167 339.742Z" fill="white"/>
<path d="M78.5833 370.628C76.6964 370.628 75.1667 369.092 75.1667 367.196C75.1667 365.301 76.6964 363.765 78.5833 363.765C80.4703 363.765 82 365.301 82 367.196C82 369.092 80.4703 370.628 78.5833 370.628Z" fill="white"/>
<path d="M85.4167 374.06C83.5297 374.06 82 372.523 82 370.628C82 368.733 83.5297 367.196 85.4167 367.196C87.3037 367.196 88.8334 368.733 88.8334 370.628C88.8334 372.523 87.3037 374.06 85.4167 374.06Z" fill="white"/>
<path d="M64.9167 408.377C63.0297 408.377 61.5 406.841 61.5 404.945C61.5 403.05 63.0297 401.514 64.9167 401.514C66.8037 401.514 68.3334 403.05 68.3334 404.945C68.3334 406.841 66.8037 408.377 64.9167 408.377Z" fill="white"/>
<path d="M71.75 401.514C69.863 401.514 68.3333 399.977 68.3333 398.082C68.3333 396.187 69.863 394.65 71.75 394.65C73.6369 394.65 75.1666 396.187 75.1666 398.082C75.1666 399.977 73.6369 401.514 71.75 401.514Z" fill="white"/>
<path d="M27.3333 401.514C25.4464 401.514 23.9167 399.977 23.9167 398.082C23.9167 396.187 25.4464 394.65 27.3333 394.65C29.2203 394.65 30.75 396.187 30.75 398.082C30.75 399.977 29.2203 401.514 27.3333 401.514Z" fill="white"/>
<path d="M17.0833 411.809C15.1964 411.809 13.6667 410.273 13.6667 408.377C13.6667 406.482 15.1964 404.945 17.0833 404.945C18.9703 404.945 20.5 406.482 20.5 408.377C20.5 410.273 18.9703 411.809 17.0833 411.809Z" fill="white"/>
<path d="M140.083 374.06C138.196 374.06 136.667 372.523 136.667 370.628C136.667 368.733 138.196 367.196 140.083 367.196C141.97 367.196 143.5 368.733 143.5 370.628C143.5 372.523 141.97 374.06 140.083 374.06Z" fill="white"/>
<path d="M157.167 370.628C155.28 370.628 153.75 369.092 153.75 367.196C153.75 365.301 155.28 363.765 157.167 363.765C159.054 363.765 160.583 365.301 160.583 367.196C160.583 369.092 159.054 370.628 157.167 370.628Z" fill="white"/>
<path d="M136.667 411.809C134.78 411.809 133.25 410.273 133.25 408.377C133.25 406.482 134.78 404.945 136.667 404.945C138.554 404.945 140.083 406.482 140.083 408.377C140.083 410.273 138.554 411.809 136.667 411.809Z" fill="white"/>
<path d="M143.5 384.355C141.613 384.355 140.083 382.819 140.083 380.923C140.083 379.028 141.613 377.492 143.5 377.492C145.387 377.492 146.917 379.028 146.917 380.923C146.917 382.819 145.387 384.355 143.5 384.355Z" fill="white"/>
<path d="M123 308.857C121.113 308.857 119.583 307.32 119.583 305.425C119.583 303.53 121.113 301.993 123 301.993C124.887 301.993 126.417 303.53 126.417 305.425C126.417 307.32 124.887 308.857 123 308.857Z" fill="white"/>
<path d="M78.5833 322.584C76.6964 322.584 75.1667 321.047 75.1667 319.152C75.1667 317.257 76.6964 315.72 78.5833 315.72C80.4703 315.72 82 317.257 82 319.152C82 321.047 80.4703 322.584 78.5833 322.584Z" fill="white"/>
<path d="M109.333 288.266C107.446 288.266 105.917 286.73 105.917 284.835C105.917 282.939 107.446 281.403 109.333 281.403C111.22 281.403 112.75 282.939 112.75 284.835C112.75 286.73 111.22 288.266 109.333 288.266Z" fill="white"/>
<path d="M150.333 253.949C148.446 253.949 146.917 252.412 146.917 250.517C146.917 248.622 148.446 247.085 150.333 247.085C152.22 247.085 153.75 248.622 153.75 250.517C153.75 252.412 152.22 253.949 150.333 253.949Z" fill="white"/>
<path d="M3.41671 336.311C1.52973 336.311 4.05312e-05 334.774 4.05312e-05 332.879C4.05312e-05 330.984 1.52973 329.447 3.41671 329.447C5.30368 329.447 6.83337 330.984 6.83337 332.879C6.83337 334.774 5.30368 336.311 3.41671 336.311Z" fill="white"/>
<path d="M3.41671 353.469C1.52973 353.469 4.05312e-05 351.933 4.05312e-05 350.038C4.05312e-05 348.142 1.52973 346.606 3.41671 346.606C5.30368 346.606 6.83337 348.142 6.83337 350.038C6.83337 351.933 5.30368 353.469 3.41671 353.469Z" fill="white"/>
<path d="M6.83333 274.539C4.94636 274.539 3.41667 273.003 3.41667 271.108C3.41667 269.212 4.94636 267.676 6.83333 267.676C8.72031 267.676 10.25 269.212 10.25 271.108C10.25 273.003 8.72031 274.539 6.83333 274.539Z" fill="white"/>
<path d="M3.41671 284.835C1.52973 284.835 4.05312e-05 283.298 4.05312e-05 281.403C4.05312e-05 279.508 1.52973 277.971 3.41671 277.971C5.30368 277.971 6.83337 279.508 6.83337 281.403C6.83337 283.298 5.30368 284.835 3.41671 284.835Z" fill="white"/>
<path d="M58.0833 271.108C56.1964 271.108 54.6667 269.571 54.6667 267.676C54.6667 265.781 56.1964 264.244 58.0833 264.244C59.9703 264.244 61.5 265.781 61.5 267.676C61.5 269.571 59.9703 271.108 58.0833 271.108Z" fill="white"/>
<path d="M47.8333 350.038C45.9464 350.038 44.4167 348.501 44.4167 346.606C44.4167 344.711 45.9464 343.174 47.8333 343.174C49.7203 343.174 51.25 344.711 51.25 346.606C51.25 348.501 49.7203 350.038 47.8333 350.038Z" fill="white"/>
<path d="M34.1667 264.244C32.2797 264.244 30.75 262.708 30.75 260.812C30.75 258.917 32.2797 257.381 34.1667 257.381C36.0537 257.381 37.5834 258.917 37.5834 260.812C37.5834 262.708 36.0537 264.244 34.1667 264.244Z" fill="white"/>
<path d="M27.3333 253.949C25.4464 253.949 23.9167 252.412 23.9167 250.517C23.9167 248.622 25.4464 247.085 27.3333 247.085C29.2203 247.085 30.75 248.622 30.75 250.517C30.75 252.412 29.2203 253.949 27.3333 253.949Z" fill="white"/>
<path d="M20.5 250.517C18.613 250.517 17.0833 248.981 17.0833 247.085C17.0833 245.19 18.613 243.654 20.5 243.654C22.3869 243.654 23.9166 245.19 23.9166 247.085C23.9166 248.981 22.3869 250.517 20.5 250.517Z" fill="white"/>
<path d="M44.4167 267.676C42.5297 267.676 41 266.139 41 264.244C41 262.349 42.5297 260.812 44.4167 260.812C46.3037 260.812 47.8334 262.349 47.8334 264.244C47.8334 266.139 46.3037 267.676 44.4167 267.676Z" fill="white"/>
<path d="M10.25 243.654C8.36299 243.654 6.83329 242.117 6.83329 240.222C6.83329 238.327 8.36299 236.79 10.25 236.79C12.1369 236.79 13.6666 238.327 13.6666 240.222C13.6666 242.117 12.1369 243.654 10.25 243.654Z" fill="white"/>
<path d="M17.0833 212.768C15.1964 212.768 13.6667 211.232 13.6667 209.336C13.6667 207.441 15.1964 205.904 17.0833 205.904C18.9703 205.904 20.5 207.441 20.5 209.336C20.5 211.232 18.9703 212.768 17.0833 212.768Z" fill="white"/>
<path d="M13.6667 223.063C11.7797 223.063 10.25 221.527 10.25 219.631C10.25 217.736 11.7797 216.2 13.6667 216.2C15.5537 216.2 17.0834 217.736 17.0834 219.631C17.0834 221.527 15.5537 223.063 13.6667 223.063Z" fill="white"/>
<path d="M153.75 243.654C151.863 243.654 150.333 242.117 150.333 240.222C150.333 238.327 151.863 236.79 153.75 236.79C155.637 236.79 157.167 238.327 157.167 240.222C157.167 242.117 155.637 243.654 153.75 243.654Z" fill="white"/>
<path d="M150.333 233.358C148.446 233.358 146.917 231.822 146.917 229.927C146.917 228.031 148.446 226.495 150.333 226.495C152.22 226.495 153.75 228.031 153.75 229.927C153.75 231.822 152.22 233.358 150.333 233.358Z" fill="white"/>
<path d="M146.917 243.654C145.03 243.654 143.5 242.117 143.5 240.222C143.5 238.327 145.03 236.79 146.917 236.79C148.804 236.79 150.333 238.327 150.333 240.222C150.333 242.117 148.804 243.654 146.917 243.654Z" fill="white"/>
<path d="M136.667 216.2C134.78 216.2 133.25 214.663 133.25 212.768C133.25 210.873 134.78 209.336 136.667 209.336C138.554 209.336 140.083 210.873 140.083 212.768C140.083 214.663 138.554 216.2 136.667 216.2Z" fill="white"/>
<path d="M150.333 322.584C144.672 322.584 140.083 317.974 140.083 312.288C140.083 306.603 144.672 301.993 150.333 301.993C155.994 301.993 160.583 306.603 160.583 312.288C160.583 317.974 155.994 322.584 150.333 322.584Z" fill="white"/>
<path d="M17.0834 271.108C11.4225 271.108 6.83337 266.498 6.83337 260.812C6.83337 255.126 11.4225 250.517 17.0834 250.517C22.7443 250.517 27.3334 255.126 27.3334 260.812C27.3334 266.498 22.7443 271.108 17.0834 271.108Z" fill="white"/>
<path d="M146.917 367.196C141.256 367.196 136.667 362.587 136.667 356.901C136.667 351.215 141.256 346.606 146.917 346.606C152.578 346.606 157.167 351.215 157.167 356.901C157.167 362.587 152.578 367.196 146.917 367.196Z" fill="white"/>
<path d="M85.4166 404.945C79.7557 404.945 75.1666 400.336 75.1666 394.65C75.1666 388.964 79.7557 384.355 85.4166 384.355C91.0775 384.355 95.6666 388.964 95.6666 394.65C95.6666 400.336 91.0775 404.945 85.4166 404.945Z" fill="white"/>
<path d="M116.167 329.447C110.506 329.447 105.917 324.838 105.917 319.152C105.917 313.466 110.506 308.857 116.167 308.857C121.828 308.857 126.417 313.466 126.417 319.152C126.417 324.838 121.828 329.447 116.167 329.447Z" fill="white"/>
<path d="M126.417 356.901C120.756 356.901 116.167 352.292 116.167 346.606C116.167 340.92 120.756 336.311 126.417 336.311C132.078 336.311 136.667 340.92 136.667 346.606C136.667 352.292 132.078 356.901 126.417 356.901Z" fill="white"/>
<path d="M126.417 298.562C120.756 298.562 116.167 293.952 116.167 288.266C116.167 282.58 120.756 277.971 126.417 277.971C132.078 277.971 136.667 282.58 136.667 288.266C136.667 293.952 132.078 298.562 126.417 298.562Z" fill="white"/>
<path d="M105.917 250.517C100.256 250.517 95.6666 245.908 95.6666 240.222C95.6666 234.536 100.256 229.927 105.917 229.927C111.578 229.927 116.167 234.536 116.167 240.222C116.167 245.908 111.578 250.517 105.917 250.517Z" fill="white"/>
<path d="M51.25 260.812C39.9282 260.812 30.75 251.594 30.75 240.222C30.75 228.85 39.9282 219.631 51.25 219.631C62.5718 219.631 71.75 228.85 71.75 240.222C71.75 251.594 62.5718 260.812 51.25 260.812Z" fill="white"/>
<path d="M25.625 391.219C13.3597 391.219 3.41671 381.232 3.41671 368.912C3.41671 356.593 13.3597 346.606 25.625 346.606C37.8904 346.606 47.8334 356.593 47.8334 368.912C47.8334 381.232 37.8904 391.219 25.625 391.219Z" fill="white"/>
<path d="M87.125 291.698C74.8597 291.698 64.9167 281.711 64.9167 269.392C64.9167 257.072 74.8597 247.085 87.125 247.085C99.3904 247.085 109.333 257.072 109.333 269.392C109.333 281.711 99.3904 291.698 87.125 291.698Z" fill="white"/>
<path d="M117.875 411.809C105.61 411.809 95.6667 401.822 95.6667 389.503C95.6667 377.183 105.61 367.196 117.875 367.196C130.14 367.196 140.083 377.183 140.083 389.503C140.083 401.822 130.14 411.809 117.875 411.809Z" fill="white"/>
<path d="M35.875 343.174C16.0618 343.174 0 327.041 0 307.141C0 287.24 16.0618 271.108 35.875 271.108C55.6882 271.108 71.75 287.24 71.75 307.141C71.75 327.041 55.6882 343.174 35.875 343.174Z" fill="white"/>
<path d="M75.1667 229.927C71.3927 229.927 68.3333 226.854 68.3333 223.063C68.3333 219.273 71.3927 216.2 75.1667 216.2C78.9406 216.2 82 219.273 82 223.063C82 226.854 78.9406 229.927 75.1667 229.927Z" fill="white"/>
<path d="M58.0833 401.514C54.3093 401.514 51.25 398.441 51.25 394.65C51.25 390.86 54.3093 387.787 58.0833 387.787C61.8572 387.787 64.9166 390.86 64.9166 394.65C64.9166 398.441 61.8572 401.514 58.0833 401.514Z" fill="white"/>
<path d="M17.0833 608.21C13.3093 608.21 10.25 605.137 10.25 601.347C10.25 597.556 13.3093 594.483 17.0833 594.483C20.8572 594.483 23.9166 597.556 23.9166 601.347C23.9166 605.137 20.8572 608.21 17.0833 608.21Z" fill="white"/>
<path d="M27.3333 422.896C23.5593 422.896 20.5 419.823 20.5 416.033C20.5 412.242 23.5593 409.169 27.3333 409.169C31.1072 409.169 34.1666 412.242 34.1666 416.033C34.1666 419.823 31.1072 422.896 27.3333 422.896Z" fill="white"/>
<path d="M13.6667 591.051C6.11882 591.051 4.00543e-05 584.906 4.00543e-05 577.325C4.00543e-05 569.743 6.11882 563.598 13.6667 563.598C21.2146 563.598 27.3334 569.743 27.3334 577.325C27.3334 584.906 21.2146 591.051 13.6667 591.051Z" fill="white"/>
<path d="M61.5 560.166C53.9521 560.166 47.8333 554.02 47.8333 546.439C47.8333 538.858 53.9521 532.712 61.5 532.712C69.0479 532.712 75.1666 538.858 75.1666 546.439C75.1666 554.02 69.0479 560.166 61.5 560.166Z" fill="white"/>
<path d="M41 604.778C33.4521 604.778 27.3333 598.633 27.3333 591.051C27.3333 583.47 33.4521 577.325 41 577.325C48.5479 577.325 54.6666 583.47 54.6666 591.051C54.6666 598.633 48.5479 604.778 41 604.778Z" fill="white"/>
<path d="M102.5 488.099C94.9521 488.099 88.8333 481.953 88.8333 474.372C88.8333 466.791 94.9521 460.645 102.5 460.645C110.048 460.645 116.167 466.791 116.167 474.372C116.167 481.953 110.048 488.099 102.5 488.099Z" fill="white"/>
<path d="M107.625 436.623C104.795 436.623 102.5 434.318 102.5 431.476C102.5 428.633 104.795 426.328 107.625 426.328C110.455 426.328 112.75 428.633 112.75 431.476C112.75 434.318 110.455 436.623 107.625 436.623Z" fill="white"/>
<path d="M100.792 422.896C97.9612 422.896 95.6666 420.591 95.6666 417.749C95.6666 414.906 97.9612 412.601 100.792 412.601C103.622 412.601 105.917 414.906 105.917 417.749C105.917 420.591 103.622 422.896 100.792 422.896Z" fill="white"/>
<path d="M87.125 419.464C84.2945 419.464 82 417.16 82 414.317C82 411.474 84.2945 409.169 87.125 409.169C89.9555 409.169 92.25 411.474 92.25 414.317C92.25 417.16 89.9555 419.464 87.125 419.464Z" fill="white"/>
<path d="M141.792 422.896C138.961 422.896 136.667 420.591 136.667 417.749C136.667 414.906 138.961 412.601 141.792 412.601C144.622 412.601 146.917 414.906 146.917 417.749C146.917 420.591 144.622 422.896 141.792 422.896Z" fill="white"/>
<path d="M80.2916 543.007C77.4612 543.007 75.1666 540.702 75.1666 537.859C75.1666 535.017 77.4612 532.712 80.2916 532.712C83.1221 532.712 85.4166 535.017 85.4166 537.859C85.4166 540.702 83.1221 543.007 80.2916 543.007Z" fill="white"/>
<path d="M134.958 450.35C132.128 450.35 129.833 448.045 129.833 445.202C129.833 442.36 132.128 440.055 134.958 440.055C137.789 440.055 140.083 442.36 140.083 445.202C140.083 448.045 137.789 450.35 134.958 450.35Z" fill="white"/>
<path d="M104.208 505.258C101.378 505.258 99.0834 502.953 99.0834 500.11C99.0834 497.267 101.378 494.963 104.208 494.963C107.039 494.963 109.333 497.267 109.333 500.11C109.333 502.953 107.039 505.258 104.208 505.258Z" fill="white"/>
<path d="M145.208 436.623C142.378 436.623 140.083 434.318 140.083 431.476C140.083 428.633 142.378 426.328 145.208 426.328C148.039 426.328 150.333 428.633 150.333 431.476C150.333 434.318 148.039 436.623 145.208 436.623Z" fill="white"/>
<path d="M80.2916 563.598C77.4612 563.598 75.1666 561.293 75.1666 558.45C75.1666 555.607 77.4612 553.302 80.2916 553.302C83.1221 553.302 85.4166 555.607 85.4166 558.45C85.4166 561.293 83.1221 563.598 80.2916 563.598Z" fill="white"/>
<path d="M100.792 567.029C97.9612 567.029 95.6666 564.725 95.6666 561.882C95.6666 559.039 97.9612 556.734 100.792 556.734C103.622 556.734 105.917 559.039 105.917 561.882C105.917 564.725 103.622 567.029 100.792 567.029Z" fill="white"/>
<path d="M87.125 553.302C84.2945 553.302 82 550.998 82 548.155C82 545.312 84.2945 543.007 87.125 543.007C89.9555 543.007 92.25 545.312 92.25 548.155C92.25 550.998 89.9555 553.302 87.125 553.302Z" fill="white"/>
<path d="M70.0416 573.893C67.2112 573.893 64.9166 571.588 64.9166 568.745C64.9166 565.902 67.2112 563.598 70.0416 563.598C72.8721 563.598 75.1666 565.902 75.1666 568.745C75.1666 571.588 72.8721 573.893 70.0416 573.893Z" fill="white"/>
<path d="M158.875 580.756C156.045 580.756 153.75 578.452 153.75 575.609C153.75 572.766 156.045 570.461 158.875 570.461C161.705 570.461 164 572.766 164 575.609C164 578.452 161.705 580.756 158.875 580.756Z" fill="white"/>
<path d="M155.458 563.598C152.628 563.598 150.333 561.293 150.333 558.45C150.333 555.607 152.628 553.302 155.458 553.302C158.289 553.302 160.583 555.607 160.583 558.45C160.583 561.293 158.289 563.598 155.458 563.598Z" fill="white"/>
<path d="M128.125 532.712C125.295 532.712 123 530.407 123 527.564C123 524.721 125.295 522.417 128.125 522.417C130.955 522.417 133.25 524.721 133.25 527.564C133.25 530.407 130.955 532.712 128.125 532.712Z" fill="white"/>
<path d="M141.792 460.645C138.961 460.645 136.667 458.341 136.667 455.498C136.667 452.655 138.961 450.35 141.792 450.35C144.622 450.35 146.917 452.655 146.917 455.498C146.917 458.341 144.622 460.645 141.792 460.645Z" fill="white"/>
<path d="M76.875 436.623C74.0445 436.623 71.75 434.318 71.75 431.476C71.75 428.633 74.0445 426.328 76.875 426.328C79.7055 426.328 82 428.633 82 431.476C82 434.318 79.7055 436.623 76.875 436.623Z" fill="white"/>
<path d="M15.375 429.76C12.5445 429.76 10.25 427.455 10.25 424.612C10.25 421.769 12.5445 419.464 15.375 419.464C18.2055 419.464 20.5 421.769 20.5 424.612C20.5 427.455 18.2055 429.76 15.375 429.76Z" fill="white"/>
<path d="M18.7916 440.055C15.9612 440.055 13.6666 437.75 13.6666 434.907C13.6666 432.064 15.9612 429.76 18.7916 429.76C21.6221 429.76 23.9166 432.064 23.9166 434.907C23.9166 437.75 21.6221 440.055 18.7916 440.055Z" fill="white"/>
<path d="M35.875 433.191C33.0445 433.191 30.75 430.887 30.75 428.044C30.75 425.201 33.0445 422.896 35.875 422.896C38.7055 422.896 41 425.201 41 428.044C41 430.887 38.7055 433.191 35.875 433.191Z" fill="white"/>
<path d="M59.7916 470.941C56.9612 470.941 54.6666 468.636 54.6666 465.793C54.6666 462.95 56.9612 460.645 59.7916 460.645C62.6221 460.645 64.9166 462.95 64.9166 465.793C64.9166 468.636 62.6221 470.941 59.7916 470.941Z" fill="white"/>
<path d="M46.125 505.258C43.2945 505.258 41 502.953 41 500.11C41 497.267 43.2945 494.963 46.125 494.963C48.9555 494.963 51.25 497.267 51.25 500.11C51.25 502.953 48.9555 505.258 46.125 505.258Z" fill="white"/>
<path d="M52.9584 577.325C50.1279 577.325 47.8334 575.02 47.8334 572.177C47.8334 569.334 50.1279 567.029 52.9584 567.029C55.7888 567.029 58.0834 569.334 58.0834 572.177C58.0834 575.02 55.7888 577.325 52.9584 577.325Z" fill="white"/>
<path d="M117.875 539.575C115.045 539.575 112.75 537.271 112.75 534.428C112.75 531.585 115.045 529.28 117.875 529.28C120.705 529.28 123 531.585 123 534.428C123 537.271 120.705 539.575 117.875 539.575Z" fill="white"/>
<path d="M145.208 532.712C142.378 532.712 140.083 530.407 140.083 527.564C140.083 524.721 142.378 522.417 145.208 522.417C148.039 522.417 150.333 524.721 150.333 527.564C150.333 530.407 148.039 532.712 145.208 532.712Z" fill="white"/>
<path d="M141.792 494.963C138.961 494.963 136.667 492.658 136.667 489.815C136.667 486.972 138.961 484.668 141.792 484.668C144.622 484.668 146.917 486.972 146.917 489.815C146.917 492.658 144.622 494.963 141.792 494.963Z" fill="white"/>
<path d="M11.9583 560.166C7.2409 560.166 3.41667 556.325 3.41667 551.586C3.41667 546.848 7.2409 543.007 11.9583 543.007C16.6758 543.007 20.5 546.848 20.5 551.586C20.5 556.325 16.6758 560.166 11.9583 560.166Z" fill="white"/>
<path d="M49.5417 491.531C44.8243 491.531 41 487.69 41 482.952C41 478.213 44.8243 474.372 49.5417 474.372C54.2591 474.372 58.0834 478.213 58.0834 482.952C58.0834 487.69 54.2591 491.531 49.5417 491.531Z" fill="white"/>
<path d="M66.625 529.28C61.9075 529.28 58.0833 525.439 58.0833 520.701C58.0833 515.963 61.9075 512.121 66.625 512.121C71.3424 512.121 75.1666 515.963 75.1666 520.701C75.1666 525.439 71.3424 529.28 66.625 529.28Z" fill="white"/>
<path d="M100.792 546.439C96.0743 546.439 92.25 542.598 92.25 537.86C92.25 533.121 96.0743 529.28 100.792 529.28C105.509 529.28 109.333 533.121 109.333 537.86C109.333 542.598 105.509 546.439 100.792 546.439Z" fill="white"/>
<path d="M59.7917 615.074C55.0743 615.074 51.25 611.233 51.25 606.494C51.25 601.756 55.0743 597.915 59.7917 597.915C64.5091 597.915 68.3334 601.756 68.3334 606.494C68.3334 611.233 64.5091 615.074 59.7917 615.074Z" fill="white"/>
<path d="M30.75 611.642C28.863 611.642 27.3333 610.105 27.3333 608.21C27.3333 606.315 28.863 604.778 30.75 604.778C32.6369 604.778 34.1666 606.315 34.1666 608.21C34.1666 610.105 32.6369 611.642 30.75 611.642Z" fill="white"/>
<path d="M44.4167 611.642C42.5297 611.642 41 610.105 41 608.21C41 606.315 42.5297 604.778 44.4167 604.778C46.3037 604.778 47.8334 606.315 47.8334 608.21C47.8334 610.105 46.3037 611.642 44.4167 611.642Z" fill="white"/>
<path d="M61.5 419.464C59.613 419.464 58.0833 417.928 58.0833 416.033C58.0833 414.137 59.613 412.601 61.5 412.601C63.3869 412.601 64.9166 414.137 64.9166 416.033C64.9166 417.928 63.3869 419.464 61.5 419.464Z" fill="white"/>
<path d="M41 419.464C39.113 419.464 37.5833 417.928 37.5833 416.033C37.5833 414.137 39.113 412.601 41 412.601C42.8869 412.601 44.4166 414.137 44.4166 416.033C44.4166 417.928 42.8869 419.464 41 419.464Z" fill="white"/>
<path d="M112.75 419.464C110.863 419.464 109.333 417.928 109.333 416.033C109.333 414.137 110.863 412.601 112.75 412.601C114.637 412.601 116.167 414.137 116.167 416.033C116.167 417.928 114.637 419.464 112.75 419.464Z" fill="white"/>
<path d="M88.8333 429.76C86.9464 429.76 85.4167 428.223 85.4167 426.328C85.4167 424.433 86.9464 422.896 88.8333 422.896C90.7203 422.896 92.25 424.433 92.25 426.328C92.25 428.223 90.7203 429.76 88.8333 429.76Z" fill="white"/>
<path d="M95.6667 436.623C93.7797 436.623 92.25 435.087 92.25 433.191C92.25 431.296 93.7797 429.76 95.6667 429.76C97.5537 429.76 99.0834 431.296 99.0834 433.191C99.0834 435.087 97.5537 436.623 95.6667 436.623Z" fill="white"/>
<path d="M123 419.464C121.113 419.464 119.583 417.928 119.583 416.033C119.583 414.137 121.113 412.601 123 412.601C124.887 412.601 126.417 414.137 126.417 416.033C126.417 417.928 124.887 419.464 123 419.464Z" fill="white"/>
<path d="M119.583 563.598C113.922 563.598 109.333 558.988 109.333 553.302C109.333 547.616 113.922 543.007 119.583 543.007C125.244 543.007 129.833 547.616 129.833 553.302C129.833 558.988 125.244 563.598 119.583 563.598Z" fill="white"/>
<path d="M88.8334 529.28C83.1725 529.28 78.5834 524.671 78.5834 518.985C78.5834 513.299 83.1725 508.69 88.8334 508.69C94.4943 508.69 99.0834 513.299 99.0834 518.985C99.0834 524.671 94.4943 529.28 88.8334 529.28Z" fill="white"/>
<path d="M136.667 522.417C131.006 522.417 126.417 517.807 126.417 512.121C126.417 506.436 131.006 501.826 136.667 501.826C142.328 501.826 146.917 506.436 146.917 512.121C146.917 517.807 142.328 522.417 136.667 522.417Z" fill="white"/>
<path d="M112.75 525.848C107.089 525.848 102.5 521.239 102.5 515.553C102.5 509.867 107.089 505.258 112.75 505.258C118.411 505.258 123 509.867 123 515.553C123 521.239 118.411 525.848 112.75 525.848Z" fill="white"/>
<path d="M75.1666 484.668C69.5057 484.668 64.9166 480.058 64.9166 474.372C64.9166 468.686 69.5057 464.077 75.1666 464.077C80.8275 464.077 85.4166 468.686 85.4166 474.372C85.4166 480.058 80.8275 484.668 75.1666 484.668Z" fill="white"/>
<path d="M64.9166 594.483C59.2557 594.483 54.6666 589.874 54.6666 584.188C54.6666 578.502 59.2557 573.893 64.9166 573.893C70.5775 573.893 75.1666 578.502 75.1666 584.188C75.1666 589.874 70.5775 594.483 64.9166 594.483Z" fill="white"/>
<path d="M92.25 460.645C86.5891 460.645 82 456.036 82 450.35C82 444.664 86.5891 440.055 92.25 440.055C97.9109 440.055 102.5 444.664 102.5 450.35C102.5 456.036 97.9109 460.645 92.25 460.645Z" fill="white"/>
<path d="M85.4166 584.188C79.7557 584.188 75.1666 579.579 75.1666 573.893C75.1666 568.207 79.7557 563.598 85.4166 563.598C91.0775 563.598 95.6666 568.207 95.6666 573.893C95.6666 579.579 91.0775 584.188 85.4166 584.188Z" fill="white"/>
<path d="M140.083 577.325C134.422 577.325 129.833 572.715 129.833 567.029C129.833 561.343 134.422 556.734 140.083 556.734C145.744 556.734 150.333 561.343 150.333 567.029C150.333 572.715 145.744 577.325 140.083 577.325Z" fill="white"/>
<path d="M140.083 553.302C134.422 553.302 129.833 548.693 129.833 543.007C129.833 537.321 134.422 532.712 140.083 532.712C145.744 532.712 150.333 537.321 150.333 543.007C150.333 548.693 145.744 553.302 140.083 553.302Z" fill="white"/>
<path d="M150.333 604.778C144.672 604.778 140.083 600.169 140.083 594.483C140.083 588.797 144.672 584.188 150.333 584.188C155.994 584.188 160.583 588.797 160.583 594.483C160.583 600.169 155.994 604.778 150.333 604.778Z" fill="white"/>
<path d="M78.5834 611.642C72.9225 611.642 68.3334 607.033 68.3334 601.347C68.3334 595.661 72.9225 591.051 78.5834 591.051C84.2443 591.051 88.8334 595.661 88.8334 601.347C88.8334 607.033 84.2443 611.642 78.5834 611.642Z" fill="white"/>
<path d="M68.3334 457.214C62.6725 457.214 58.0834 452.604 58.0834 446.918C58.0834 441.232 62.6725 436.623 68.3334 436.623C73.9943 436.623 78.5834 441.232 78.5834 446.918C78.5834 452.604 73.9943 457.214 68.3334 457.214Z" fill="white"/>
<path d="M116.167 460.645C110.506 460.645 105.917 456.036 105.917 450.35C105.917 444.664 110.506 440.055 116.167 440.055C121.828 440.055 126.417 444.664 126.417 450.35C126.417 456.036 121.828 460.645 116.167 460.645Z" fill="white"/>
<path d="M54.6666 440.055C49.0057 440.055 44.4166 435.446 44.4166 429.76C44.4166 424.074 49.0057 419.464 54.6666 419.464C60.3275 419.464 64.9166 424.074 64.9166 429.76C64.9166 435.446 60.3275 440.055 54.6666 440.055Z" fill="white"/>
<path d="M126.417 440.055C120.756 440.055 116.167 435.446 116.167 429.76C116.167 424.074 120.756 419.464 126.417 419.464C132.078 419.464 136.667 424.074 136.667 429.76C136.667 435.446 132.078 440.055 126.417 440.055Z" fill="white"/>
<path d="M133.25 481.236C127.589 481.236 123 476.626 123 470.941C123 465.255 127.589 460.645 133.25 460.645C138.911 460.645 143.5 465.255 143.5 470.941C143.5 476.626 138.911 481.236 133.25 481.236Z" fill="white"/>
<path d="M123 505.258C117.339 505.258 112.75 500.649 112.75 494.963C112.75 489.277 117.339 484.668 123 484.668C128.661 484.668 133.25 489.277 133.25 494.963C133.25 500.649 128.661 505.258 123 505.258Z" fill="white"/>
<path d="M27.3334 498.394C21.6725 498.394 17.0834 493.785 17.0834 488.099C17.0834 482.413 21.6725 477.804 27.3334 477.804C32.9943 477.804 37.5834 482.413 37.5834 488.099C37.5834 493.785 32.9943 498.394 27.3334 498.394Z" fill="white"/>
<path d="M64.9166 508.69C59.2557 508.69 54.6666 504.08 54.6666 498.394C54.6666 492.709 59.2557 488.099 64.9166 488.099C70.5775 488.099 75.1666 492.709 75.1666 498.394C75.1666 504.08 70.5775 508.69 64.9166 508.69Z" fill="white"/>
<path d="M34.1666 570.461C28.5057 570.461 23.9166 565.852 23.9166 560.166C23.9166 554.48 28.5057 549.871 34.1666 549.871C39.8275 549.871 44.4166 554.48 44.4166 560.166C44.4166 565.852 39.8275 570.461 34.1666 570.461Z" fill="white"/>
<path d="M34.1666 477.804C22.8448 477.804 13.6666 468.585 13.6666 457.214C13.6666 445.842 22.8448 436.623 34.1666 436.623C45.4885 436.623 54.6666 445.842 54.6666 457.214C54.6666 468.585 45.4885 477.804 34.1666 477.804Z" fill="white"/>
<path d="M32.4583 546.439C20.193 546.439 10.25 536.452 10.25 524.133C10.25 511.813 20.193 501.826 32.4583 501.826C44.7236 501.826 54.6666 511.813 54.6666 524.133C54.6666 536.452 44.7236 546.439 32.4583 546.439Z" fill="white"/>
<path d="M114.458 615.074C102.193 615.074 92.25 605.087 92.25 592.767C92.25 580.448 102.193 570.461 114.458 570.461C126.724 570.461 136.667 580.448 136.667 592.767C136.667 605.087 126.724 615.074 114.458 615.074Z" fill="white"/>
<path d="M87.125 501.826C82.4075 501.826 78.5833 497.985 78.5833 493.247C78.5833 488.509 82.4075 484.668 87.125 484.668C91.8424 484.668 95.6666 488.509 95.6666 493.247C95.6666 497.985 91.8424 501.826 87.125 501.826Z" fill="white"/>
<path d="M75.1667 422.896C71.3927 422.896 68.3333 419.823 68.3333 416.033C68.3333 412.242 71.3927 409.169 75.1667 409.169C78.9406 409.169 82 412.242 82 416.033C82 419.823 78.9406 422.896 75.1667 422.896Z" fill="white"/>
</mask>
<g mask="url(#mask0)">
<rect x="-139" y="-42" width="449" height="845" fill="#E9121D"/>
</g>
</svg>
